# xmcd
#
# Track frame offsets:
#	150
#	7851
#	16979
#	26657
#	51848
#	61569
#	70083
#	80580
#	91216
#	114191
#	159558
#
# Disc length: 2185 seconds
#
# Revision: 3
# Processed by: cddbd v1.5.2PL0 Copyright (c) Steve Scherf et al.
# Submitted via: audiograbber 1.83.01
#
DISCID=7408870b
DTITLE=Herrn Stumpfes Zieh and Zup Kabelle - Hannes und der Bürgermeister
DYEAR=2014
DGENRE=schwaebisch
TTITLE0=In der Mäulesmühle
TTITLE1=Cuckoo-Waltz
TTITLE2=Bügelmeister
TTITLE3=Wiesental
TTITLE4=Jetzt mach mr a Fescht
TTITLE5=Sieger
TTITLE6=Jampapasabadiba
TTITLE7=Rebellen-Marsch
TTITLE8=Drhoim
TTITLE9=Dronda in dr scheena Au
TTITLE10=Abschied
EXTD=
EXTT0=
EXTT1=
EXTT2=
EXTT3=
EXTT4=
EXTT5=
EXTT6=
EXTT7=
EXTT8=
EXTT9=
EXTT10=
PLAYORDER=
